<svg width="24" height="24" viewBox="0 0 24 24" fill="none" xmlns="http://www.w3.org/2000/svg">
<circle cx="12" cy="12" r="11.5" fill="white" stroke="#E0E0E0"/>
<g clip-path="url(#clip0)">
<path d="M17.2015 8.52305H16.4215V13.551C16.4215 14.4518 16.0482 14.973 14.9423 15.2359L7.87208 17.3026C7.87208 17.3026 7.26982 17.4708 7.26982 16.9066C7.26982 16.4366 7.80805 16.3791 7.89144 16.2953L7.85838 16.3082L14.3101 13.6577C14.838 13.3519 15.2709 12.6485 15.2709 12.0933V4.16539C15.2709 2.91275 14.0909 3.34211 13.8337 3.501C13.5518 3.67316 6.3599 7.83813 6.3599 7.83813C5.83204 8.14469 5.40039 8.84989 5.40039 9.40524V17.3029C5.40039 17.8571 6.1661 18.5961 6.66004 18.5995V18.6H17.2015C17.8338 18.602 18.3513 18.148 18.3513 17.5926V9.53264C18.3513 8.97664 17.8338 8.52305 17.2015 8.52305ZM12.1037 7.91936C12.6004 7.57748 13.0735 7.68893 13.1596 8.1665C13.2445 8.64624 12.9574 9.2549 12.4593 9.59665C11.9634 9.93816 11.4896 9.82823 11.4039 9.34913C11.3192 8.87042 11.6055 8.26137 12.1037 7.91936Z" fill="#F37B20"/>
</g>
<defs>
<clipPath id="clip0">
<rect width="15.6" height="15.3" fill="white" transform="translate(5.40039 3.30005)"/>
</clipPath>
</defs>
</svg>
