<svg width="24" height="24" viewBox="0 0 24 24" fill="none" xmlns="http://www.w3.org/2000/svg">
<g clip-path="url(#clip0)">
<path d="M24 12C24 13.8554 23.5788 15.6122 22.827 17.1806C20.8937 21.2145 16.7721 24 12 24C7.3538 24 3.32423 21.3595 1.33027 17.497C0.48 15.8503 0 13.9808 0 12C0 11.5548 0.024 11.1154 0.0715313 10.683C0.727359 4.67512 5.8178 0 12 0C16.8172 0 20.9716 2.83884 22.8818 6.93455C23.5994 8.47345 24 10.1902 24 12Z" fill="#353535"/>
<path d="M24.0004 12C24.0004 13.8554 23.5792 15.6123 22.8273 17.1806C22.7362 17.2252 22.6427 17.2673 22.5467 17.3065C21.789 17.6165 20.9921 17.7326 20.1791 17.7669C19.2827 17.8041 18.3947 17.7507 17.5239 17.5195C16.964 17.3706 16.4429 17.138 15.9756 16.7897C15.8963 16.7309 15.8767 16.6751 15.8973 16.5806C16.2827 14.807 16.6653 13.033 17.0488 11.2589C17.3471 9.87772 17.6473 8.49697 17.9392 7.11429C17.9696 6.96931 18.021 6.91934 18.169 6.93012L18.7528 6.93111C18.8527 6.9267 18.8786 6.95609 18.8777 7.05603C18.8728 7.65748 18.8752 8.25898 18.8752 8.8609C18.8752 10.4846 18.8742 12.1078 18.8757 13.7315C18.8762 13.9979 18.9017 14.2614 19.0256 14.5048C19.1666 14.7826 19.3939 14.9339 19.7029 14.9368C20.0115 14.9398 20.2437 14.7943 20.3887 14.5186C20.5204 14.2688 20.5439 13.997 20.5439 13.7207C20.5435 11.5132 20.5449 9.3057 20.541 7.09817C20.5405 6.97081 20.562 6.92919 20.7026 6.9297C21.429 6.93364 22.1558 6.93509 22.8822 6.93458C23.5998 8.47348 24.0004 10.1902 24.0004 12Z" fill="#FEDE00"/>
<path d="M17.5163 6.9341C16.6189 6.93851 14.2453 6.94329 14.0291 6.93401C13.9256 6.92956 13.8881 6.95618 13.8739 7.06713C13.7603 7.95256 13.6377 8.83676 13.5185 9.72143C13.3906 10.6718 13.2634 11.6224 13.1356 12.5728C13.0912 12.9026 13.0457 13.2321 13.0006 13.5618C12.9717 13.5334 12.9626 13.5049 12.9582 13.4756C12.8861 12.9905 12.8143 12.5053 12.743 12.02C12.5007 10.3719 12.2578 8.72374 12.0186 7.07515C12.0033 6.96954 11.9724 6.93227 11.8561 6.93274C10.5067 6.93799 9.1572 6.93785 7.80776 6.93307C7.68786 6.93265 7.65373 6.96917 7.63751 7.08363C7.51353 7.9587 7.38209 8.83263 7.25304 9.70704C7.09822 10.7562 6.94367 11.8053 6.78861 12.8544C6.75383 13.0897 6.71726 13.3247 6.68145 13.5599C6.65056 13.5206 6.64161 13.4827 6.6365 13.4444C6.54486 12.7567 6.45439 12.0687 6.36228 11.3811C6.1692 9.94006 5.97453 8.49921 5.78347 7.0579C5.77133 6.9664 5.74442 6.9334 5.64533 6.93373C4.47725 6.93767 3.30922 6.93743 2.14119 6.93406C2.04031 6.93377 2.01514 6.95102 2.0382 7.05631C2.36333 8.5451 2.68414 10.0348 3.00612 11.5243C3.42697 13.4712 3.84865 15.4178 4.26678 17.3652C4.28886 17.468 4.32228 17.5045 4.43586 17.504C5.85608 17.4989 7.27639 17.4987 8.69661 17.504C8.81979 17.5045 8.84909 17.4627 8.86414 17.3523C8.97819 16.5162 9.09758 15.6808 9.21683 14.8455C9.38229 13.6863 9.54889 12.5272 9.71539 11.3681C9.74904 11.1339 9.7842 10.8999 9.8187 10.6658C9.92117 11.2129 10.0011 11.7588 10.0791 12.305C10.3209 13.9979 10.5627 15.6909 10.8013 17.3842C10.8147 17.4794 10.8501 17.5034 10.9442 17.503C11.7849 17.4989 12.6255 17.5007 13.4662 17.5007C14.0635 17.5007 14.6608 17.5013 15.2581 17.4994C15.2993 17.4993 15.3567 17.5282 15.3724 17.4493C15.439 17.1116 15.529 16.7788 15.5808 16.4381C15.5893 16.4136 15.6005 16.3896 15.6059 16.3644C16.2762 13.263 16.9456 10.1614 17.6175 7.06043C17.6389 6.9611 17.6242 6.93354 17.5163 6.9341Z" fill="#FEDE00"/>
<path d="M15.5807 16.4356C15.1277 15.9653 14.8761 15.396 14.7585 14.7612C14.7012 14.4518 14.6862 14.1385 14.686 13.8248C14.6849 11.5829 14.681 6.99338 14.6787 6.9406L17.5164 6.93165C17.6243 6.93109 17.639 6.95865 17.6175 7.05798C16.9455 10.159 16.2761 13.2605 15.6059 16.3619C15.6005 16.387 15.5893 16.411 15.5807 16.4356Z" fill="#FDFDFC"/>
<path d="M1.39495 17.5C1.37339 17.4985 1.35183 17.4975 1.33031 17.497C0.48 15.8503 0 13.9808 0 12C0 11.5548 0.024 11.1155 0.0715313 10.683C0.356578 12.024 0.641672 13.3651 0.926203 14.7057C1.11525 15.5961 1.30284 16.4865 1.49634 17.3755C1.51884 17.4804 1.49925 17.5068 1.39495 17.5Z" fill="#FEDE00"/>
<path d="M2.89623 17.4981C2.59698 17.4981 2.5966 17.4982 2.53529 17.2093C1.84641 13.9648 1.15763 10.7203 0.468665 7.47585C0.438384 7.33325 0.408806 7.19047 0.374352 7.04896C0.354852 6.96894 0.359259 6.92507 0.46229 6.93154C0.598884 6.94007 0.73679 6.93913 0.873477 6.93158C0.957196 6.92694 0.987899 6.95736 1.0044 7.03658C1.15295 7.74993 1.30491 8.46257 1.45627 9.17539C1.92038 11.3615 2.38463 13.5475 2.84907 15.7335C2.96659 16.2865 3.0841 16.8395 3.20359 17.3921C3.21962 17.4662 3.21788 17.5102 3.12165 17.4997C3.0473 17.4916 2.97146 17.4981 2.89623 17.4981Z" fill="#FEDE00"/>
</g>
<defs>
<clipPath id="clip0">
<rect width="24" height="24" fill="white"/>
</clipPath>
</defs>
</svg>
